<svg xmlns="http://www.w3.org/2000/svg" xmlns:xlink="http://www.w3.org/1999/xlink" width="500" zoomAndPan="magnify" viewBox="0 0 375 374.999991" height="500" preserveAspectRatio="xMidYMid meet" version="1.0"><defs><radialGradient gradientTransform="matrix(1, 0, 0, 1, 0.0000045, 0)" gradientUnits="userSpaceOnUse" r="530.33023" cx="0" id="05828e67af" cy="0" fx="0" fy="0"><stop stop-opacity="1" stop-color="rgb(3.486633%, 3.559875%, 3.666687%)" offset="0"/><stop stop-opacity="1" stop-color="rgb(3.466797%, 3.668213%, 3.962708%)" offset="0.015625"/><stop stop-opacity="1" stop-color="rgb(3.448486%, 3.761292%, 4.216003%)" offset="0.0273438"/><stop stop-opacity="1" stop-color="rgb(3.431702%, 3.85437%, 4.469299%)" offset="0.0390625"/><stop stop-opacity="1" stop-color="rgb(3.413391%, 3.945923%, 4.722595%)" offset="0.0507812"/><stop stop-opacity="1" stop-color="rgb(3.396606%, 4.039001%, 4.975891%)" offset="0.0625"/><stop stop-opacity="1" stop-color="rgb(3.378296%, 4.13208%, 5.229187%)" offset="0.0742188"/><stop stop-opacity="1" stop-color="rgb(3.361511%, 4.223633%, 5.482483%)" offset="0.0859375"/><stop stop-opacity="1" stop-color="rgb(3.343201%, 4.316711%, 5.735779%)" offset="0.0976562"/><stop stop-opacity="1" stop-color="rgb(3.326416%, 4.40979%, 5.987549%)" offset="0.109375"/><stop stop-opacity="1" stop-color="rgb(3.308105%, 4.501343%, 6.240845%)" offset="0.121094"/><stop stop-opacity="1" stop-color="rgb(3.291321%, 4.594421%, 6.494141%)" offset="0.132812"/><stop stop-opacity="1" stop-color="rgb(3.27301%, 4.6875%, 6.747437%)" offset="0.144531"/><stop stop-opacity="1" stop-color="rgb(3.256226%, 4.779053%, 7.000732%)" offset="0.15625"/><stop stop-opacity="1" stop-color="rgb(3.237915%, 4.872131%, 7.254028%)" offset="0.167969"/><stop stop-opacity="1" stop-color="rgb(3.22113%, 4.96521%, 7.507324%)" offset="0.179688"/><stop stop-opacity="1" stop-color="rgb(3.20282%, 5.056763%, 7.76062%)" offset="0.191406"/><stop stop-opacity="1" stop-color="rgb(3.186035%, 5.149841%, 8.013916%)" offset="0.203125"/><stop stop-opacity="1" stop-color="rgb(3.167725%, 5.24292%, 8.265686%)" offset="0.214844"/><stop stop-opacity="1" stop-color="rgb(3.15094%, 5.334473%, 8.518982%)" offset="0.226562"/><stop stop-opacity="1" stop-color="rgb(3.132629%, 5.427551%, 8.772278%)" offset="0.238281"/><stop stop-opacity="1" stop-color="rgb(3.115845%, 5.52063%, 9.025574%)" offset="0.25"/><stop stop-opacity="1" stop-color="rgb(3.100586%, 5.596924%, 9.236145%)" offset="0.261719"/><stop stop-opacity="1" stop-color="rgb(3.088379%, 5.659485%, 9.405518%)" offset="0.269531"/><stop stop-opacity="1" stop-color="rgb(3.077698%, 5.72052%, 9.573364%)" offset="0.277344"/><stop stop-opacity="1" stop-color="rgb(3.065491%, 5.783081%, 9.742737%)" offset="0.285156"/><stop stop-opacity="1" stop-color="rgb(3.053284%, 5.844116%, 9.910583%)" offset="0.292969"/><stop stop-opacity="1" stop-color="rgb(3.042603%, 5.906677%, 10.079956%)" offset="0.300781"/><stop stop-opacity="1" stop-color="rgb(3.030396%, 5.967712%, 10.249329%)" offset="0.308594"/><stop stop-opacity="1" stop-color="rgb(3.018188%, 6.028748%, 10.417175%)" offset="0.316406"/><stop stop-opacity="1" stop-color="rgb(3.007507%, 6.091309%, 10.586548%)" offset="0.324219"/><stop stop-opacity="1" stop-color="rgb(2.9953%, 6.152344%, 10.754395%)" offset="0.332031"/><stop stop-opacity="1" stop-color="rgb(2.983093%, 6.214905%, 10.923767%)" offset="0.339844"/><stop stop-opacity="1" stop-color="rgb(2.972412%, 6.27594%, 11.09314%)" offset="0.347656"/><stop stop-opacity="1" stop-color="rgb(2.960205%, 6.338501%, 11.260986%)" offset="0.355469"/><stop stop-opacity="1" stop-color="rgb(2.947998%, 6.399536%, 11.430359%)" offset="0.363281"/><stop stop-opacity="1" stop-color="rgb(2.935791%, 6.462097%, 11.598206%)" offset="0.371094"/><stop stop-opacity="1" stop-color="rgb(2.919006%, 6.55365%, 11.851501%)" offset="0.378906"/><stop stop-opacity="1" stop-color="rgb(2.894592%, 6.677246%, 12.188721%)" offset="0.394531"/><stop stop-opacity="1" stop-color="rgb(2.871704%, 6.800842%, 12.527466%)" offset="0.410156"/><stop stop-opacity="1" stop-color="rgb(2.848816%, 6.924438%, 12.864685%)" offset="0.425781"/><stop stop-opacity="1" stop-color="rgb(2.824402%, 7.048035%, 13.201904%)" offset="0.441406"/><stop stop-opacity="1" stop-color="rgb(2.801514%, 7.170105%, 13.539124%)" offset="0.457031"/><stop stop-opacity="1" stop-color="rgb(2.778625%, 7.293701%, 13.876343%)" offset="0.472656"/><stop stop-opacity="1" stop-color="rgb(2.754211%, 7.417297%, 14.213562%)" offset="0.488281"/><stop stop-opacity="1" stop-color="rgb(2.734375%, 7.525635%, 14.509583%)" offset="0.503906"/><stop stop-opacity="1" stop-color="rgb(2.716064%, 7.618713%, 14.762878%)" offset="0.515625"/><stop stop-opacity="1" stop-color="rgb(2.69928%, 7.711792%, 15.016174%)" offset="0.527344"/><stop stop-opacity="1" stop-color="rgb(2.680969%, 7.803345%, 15.26947%)" offset="0.539062"/><stop stop-opacity="1" stop-color="rgb(2.664185%, 7.896423%, 15.522766%)" offset="0.550781"/><stop stop-opacity="1" stop-color="rgb(2.645874%, 7.989502%, 15.776062%)" offset="0.5625"/><stop stop-opacity="1" stop-color="rgb(2.629089%, 8.081055%, 16.029358%)" offset="0.574219"/><stop stop-opacity="1" stop-color="rgb(2.610779%, 8.174133%, 16.282654%)" offset="0.585938"/><stop stop-opacity="1" stop-color="rgb(2.593994%, 8.267212%, 16.534424%)" offset="0.597656"/><stop stop-opacity="1" stop-color="rgb(2.575684%, 8.358765%, 16.78772%)" offset="0.609375"/><stop stop-opacity="1" stop-color="rgb(2.558899%, 8.451843%, 17.041016%)" offset="0.621094"/><stop stop-opacity="1" stop-color="rgb(2.54364%, 8.529663%, 17.251587%)" offset="0.632812"/><stop stop-opacity="1" stop-color="rgb(2.532959%, 8.590698%, 17.420959%)" offset="0.640625"/><stop stop-opacity="1" stop-color="rgb(2.520752%, 8.651733%, 17.588806%)" offset="0.648438"/><stop stop-opacity="1" stop-color="rgb(2.508545%, 8.714294%, 17.758179%)" offset="0.65625"/><stop stop-opacity="1" stop-color="rgb(2.496338%, 8.77533%, 17.927551%)" offset="0.664062"/><stop stop-opacity="1" stop-color="rgb(2.485657%, 8.837891%, 18.095398%)" offset="0.671875"/><stop stop-opacity="1" stop-color="rgb(2.47345%, 8.898926%, 18.264771%)" offset="0.679688"/><stop stop-opacity="1" stop-color="rgb(2.461243%, 8.961487%, 18.432617%)" offset="0.6875"/><stop stop-opacity="1" stop-color="rgb(2.444458%, 9.05304%, 18.685913%)" offset="0.695312"/><stop stop-opacity="1" stop-color="rgb(2.420044%, 9.176636%, 19.023132%)" offset="0.710938"/><stop stop-opacity="1" stop-color="rgb(2.397156%, 9.300232%, 19.361877%)" offset="0.726562"/><stop stop-opacity="1" stop-color="rgb(2.374268%, 9.423828%, 19.699097%)" offset="0.742188"/><stop stop-opacity="1" stop-color="rgb(2.352905%, 9.532166%, 19.995117%)" offset="0.757812"/><stop stop-opacity="1" stop-color="rgb(2.336121%, 9.623718%, 20.246887%)" offset="0.769531"/><stop stop-opacity="1" stop-color="rgb(2.31781%, 9.716797%, 20.500183%)" offset="0.78125"/><stop stop-opacity="1" stop-color="rgb(2.301025%, 9.809875%, 20.753479%)" offset="0.792969"/><stop stop-opacity="1" stop-color="rgb(2.282715%, 9.901428%, 21.006775%)" offset="0.804688"/><stop stop-opacity="1" stop-color="rgb(2.268982%, 9.979248%, 21.217346%)" offset="0.816406"/><stop stop-opacity="1" stop-color="rgb(2.256775%, 10.041809%, 21.386719%)" offset="0.824219"/><stop stop-opacity="1" stop-color="rgb(2.244568%, 10.102844%, 21.554565%)" offset="0.832031"/><stop stop-opacity="1" stop-color="rgb(2.233887%, 10.163879%, 21.723938%)" offset="0.839844"/><stop stop-opacity="1" stop-color="rgb(2.215576%, 10.256958%, 21.977234%)" offset="0.847656"/><stop stop-opacity="1" stop-color="rgb(2.192688%, 10.380554%, 22.314453%)" offset="0.863281"/><stop stop-opacity="1" stop-color="rgb(2.171326%, 10.488892%, 22.610474%)" offset="0.878906"/><stop stop-opacity="1" stop-color="rgb(2.154541%, 10.580444%, 22.86377%)" offset="0.890625"/><stop stop-opacity="1" stop-color="rgb(2.13623%, 10.673523%, 23.117065%)" offset="0.902344"/><stop stop-opacity="1" stop-color="rgb(2.122498%, 10.751343%, 23.327637%)" offset="0.914062"/><stop stop-opacity="1" stop-color="rgb(2.110291%, 10.812378%, 23.495483%)" offset="0.921875"/><stop stop-opacity="1" stop-color="rgb(2.09198%, 10.905457%, 23.748779%)" offset="0.929688"/><stop stop-opacity="1" stop-color="rgb(2.072144%, 11.012268%, 24.0448%)" offset="0.945312"/><stop stop-opacity="1" stop-color="rgb(2.056885%, 11.090088%, 24.255371%)" offset="0.957031"/><stop stop-opacity="1" stop-color="rgb(2.0401%, 11.183167%, 24.508667%)" offset="0.964844"/><stop stop-opacity="1" stop-color="rgb(2.02179%, 11.274719%, 24.761963%)" offset="0.980469"/><stop stop-opacity="1" stop-color="rgb(2.008057%, 11.352539%, 24.972534%)" offset="0.988281"/><stop stop-opacity="1" stop-color="rgb(1.998901%, 11.399841%, 25.099182%)" offset="1"/></radialGradient><clipPath id="636b1b332c"><path d="M 26.078125 155 L 138 155 L 138 242 L 26.078125 242 Z M 26.078125 155 " clip-rule="nonzero"/></clipPath><clipPath id="15e36dc18a"><path d="M 43.253906 239.386719 L 75 239.386719 L 75 271.636719 L 43.253906 271.636719 Z M 43.253906 239.386719 " clip-rule="nonzero"/></clipPath><clipPath id="8bfa2c6024"><path d="M 68 255 L 85.253906 255 L 85.253906 271.636719 L 68 271.636719 Z M 68 255 " clip-rule="nonzero"/></clipPath><clipPath id="39351c0f32"><path d="M 120.558594 49.734375 L 153 49.734375 L 153 81.984375 L 120.558594 81.984375 Z M 120.558594 49.734375 " clip-rule="nonzero"/></clipPath><clipPath id="ac283d7812"><path d="M 146 65 L 162.558594 65 L 162.558594 81.984375 L 146 81.984375 Z M 146 65 " clip-rule="nonzero"/></clipPath><clipPath id="f38d8e6d43"><path d="M 307.148438 207.410156 L 339 207.410156 L 339 239.660156 L 307.148438 239.660156 Z M 307.148438 207.410156 " clip-rule="nonzero"/></clipPath><clipPath id="718e5e29ab"><path d="M 332 223 L 349 223 L 349 239.660156 L 332 239.660156 Z M 332 223 " clip-rule="nonzero"/></clipPath><clipPath id="390e629d26"><path d="M 187.769531 207.410156 L 212 207.410156 L 212 231.410156 L 187.769531 231.410156 Z M 187.769531 207.410156 " clip-rule="nonzero"/></clipPath><clipPath id="4e931fd97a"><path d="M 206 219 L 218.519531 219 L 218.519531 231.410156 L 206 231.410156 Z M 206 219 " clip-rule="nonzero"/></clipPath></defs><rect x="-37.5" width="450" fill="#ffffff" y="-37.499999" height="449.999989" fill-opacity="1"/><rect x="-37.5" fill="url(#05828e67af)" width="450" y="-37.499999" height="449.999989"/><path fill="#ffffff" d="M 301.34375 112.824219 C 300.726562 112.136719 300.023438 111.519531 299.257812 110.960938 C 298.488281 110.417969 297.636719 109.960938 296.722656 109.621094 C 296.265625 109.453125 295.792969 109.316406 295.304688 109.226562 C 295.066406 109.167969 294.820312 109.140625 294.574219 109.113281 C 294.328125 109.074219 294.078125 109.058594 293.828125 109.054688 C 293.328125 109.027344 292.828125 109.066406 292.332031 109.117188 L 291.589844 109.234375 L 290.867188 109.417969 C 290.621094 109.46875 290.390625 109.5625 290.152344 109.640625 C 289.921875 109.722656 289.683594 109.800781 289.464844 109.910156 L 288.789062 110.214844 C 288.570312 110.324219 288.359375 110.453125 288.144531 110.566406 C 287.707031 110.792969 287.320312 111.082031 286.917969 111.347656 C 286.519531 111.625 286.15625 111.9375 285.773438 112.230469 C 285.417969 112.542969 285.066406 112.871094 284.71875 113.191406 L 284.660156 113.253906 L 284.601562 113.191406 L 283.546875 112.226562 C 283.164062 111.933594 282.800781 111.625 282.402344 111.347656 C 282 111.082031 281.613281 110.789062 281.171875 110.566406 C 280.957031 110.449219 280.75 110.324219 280.53125 110.214844 L 279.855469 109.90625 C 279.636719 109.796875 279.398438 109.722656 279.164062 109.636719 C 278.929688 109.5625 278.699219 109.464844 278.457031 109.414062 L 277.730469 109.234375 L 276.988281 109.113281 C 276.492188 109.0625 275.992188 109.023438 275.488281 109.050781 C 275.242188 109.054688 274.992188 109.070312 274.746094 109.109375 C 274.5 109.140625 274.253906 109.164062 274.011719 109.222656 C 273.527344 109.316406 273.050781 109.449219 272.59375 109.617188 C 271.679688 109.957031 270.828125 110.417969 270.054688 110.957031 C 269.292969 111.515625 268.589844 112.136719 267.972656 112.820312 C 267.359375 113.511719 266.804688 114.242188 266.375 115.046875 C 267.023438 114.417969 267.714844 113.847656 268.433594 113.335938 C 268.800781 113.089844 269.15625 112.835938 269.535156 112.617188 C 269.90625 112.394531 270.289062 112.191406 270.679688 112.011719 C 271.449219 111.640625 272.246094 111.351562 273.054688 111.1875 C 273.457031 111.109375 273.863281 111.039062 274.265625 111.015625 C 274.464844 110.988281 274.667969 110.996094 274.867188 110.992188 C 275.070312 110.988281 275.269531 110.992188 275.46875 111.015625 C 275.867188 111.03125 276.261719 111.101562 276.648438 111.179688 L 277.230469 111.320312 L 277.796875 111.511719 C 277.988281 111.566406 278.167969 111.660156 278.351562 111.734375 C 278.539062 111.820312 278.726562 111.886719 278.902344 111.988281 L 279.4375 112.269531 C 279.617188 112.371094 279.785156 112.488281 279.960938 112.59375 C 280.308594 112.800781 280.636719 113.058594 280.972656 113.296875 C 281.304688 113.542969 281.613281 113.828125 281.9375 114.09375 L 282.859375 114.957031 L 283.734375 115.882812 L 284.660156 116.859375 L 285.582031 115.882812 L 286.460938 114.957031 L 287.382812 114.089844 C 287.703125 113.828125 288.015625 113.542969 288.34375 113.296875 C 288.679688 113.058594 289.007812 112.796875 289.359375 112.589844 C 289.53125 112.484375 289.703125 112.367188 289.878906 112.269531 L 290.414062 111.984375 C 290.59375 111.882812 290.78125 111.816406 290.960938 111.734375 C 291.148438 111.65625 291.328125 111.5625 291.519531 111.507812 L 292.089844 111.316406 L 292.667969 111.175781 C 293.058594 111.097656 293.453125 111.027344 293.851562 111.011719 C 294.050781 110.992188 294.25 110.984375 294.449219 110.992188 C 294.652344 110.992188 294.851562 110.984375 295.054688 111.011719 C 295.457031 111.035156 295.859375 111.105469 296.265625 111.183594 C 297.074219 111.347656 297.871094 111.636719 298.640625 112.007812 C 299.027344 112.191406 299.414062 112.390625 299.785156 112.617188 C 300.164062 112.835938 300.519531 113.085938 300.886719 113.332031 C 301.601562 113.847656 302.296875 114.414062 302.945312 115.046875 C 302.511719 114.246094 301.957031 113.511719 301.34375 112.824219 " fill-opacity="1" fill-rule="nonzero"/><path fill="#ffffff" d="M 313.617188 91.300781 C 313.046875 91.015625 312.445312 90.792969 311.816406 90.628906 C 311.183594 90.472656 310.523438 90.390625 309.855469 90.398438 C 309.519531 90.40625 309.179688 90.4375 308.847656 90.5 C 308.679688 90.523438 308.511719 90.566406 308.347656 90.609375 C 308.179688 90.648438 308.015625 90.699219 307.855469 90.757812 C 307.53125 90.867188 307.21875 91.015625 306.910156 91.171875 L 306.464844 91.433594 L 306.042969 91.730469 C 305.898438 91.824219 305.777344 91.941406 305.644531 92.050781 C 305.515625 92.160156 305.382812 92.269531 305.269531 92.394531 L 304.914062 92.757812 C 304.796875 92.882812 304.695312 93.015625 304.589844 93.144531 C 304.363281 93.398438 304.1875 93.679688 303.996094 93.953125 C 303.808594 94.230469 303.652344 94.519531 303.480469 94.804688 C 303.328125 95.09375 303.1875 95.390625 303.042969 95.683594 L 303.019531 95.738281 L 302.96875 95.714844 L 302.050781 95.359375 C 301.734375 95.265625 301.421875 95.15625 301.097656 95.078125 C 300.769531 95.007812 300.453125 94.917969 300.113281 94.882812 C 299.949219 94.863281 299.78125 94.832031 299.613281 94.816406 L 299.105469 94.789062 C 298.9375 94.773438 298.765625 94.785156 298.59375 94.789062 C 298.421875 94.796875 298.253906 94.792969 298.085938 94.820312 L 297.570312 94.886719 L 297.066406 94.996094 C 296.734375 95.089844 296.40625 95.1875 296.089844 95.328125 C 295.933594 95.394531 295.777344 95.464844 295.628906 95.550781 C 295.476562 95.632812 295.324219 95.710938 295.1875 95.808594 C 294.898438 95.988281 294.625 96.191406 294.375 96.414062 C 293.871094 96.859375 293.441406 97.367188 293.082031 97.90625 C 292.730469 98.453125 292.433594 99.027344 292.210938 99.621094 C 291.988281 100.214844 291.8125 100.824219 291.738281 101.449219 C 291.996094 100.882812 292.300781 100.34375 292.632812 99.835938 C 292.808594 99.585938 292.972656 99.335938 293.160156 99.101562 C 293.34375 98.863281 293.539062 98.640625 293.742188 98.425781 C 294.144531 97.996094 294.585938 97.613281 295.0625 97.304688 C 295.300781 97.15625 295.542969 97.007812 295.796875 96.894531 C 295.917969 96.828125 296.050781 96.78125 296.175781 96.730469 C 296.304688 96.675781 296.433594 96.628906 296.566406 96.59375 C 296.824219 96.503906 297.097656 96.453125 297.367188 96.402344 L 297.773438 96.351562 L 298.183594 96.332031 C 298.320312 96.320312 298.460938 96.335938 298.597656 96.335938 C 298.734375 96.34375 298.871094 96.339844 299.011719 96.363281 L 299.425781 96.40625 C 299.5625 96.425781 299.703125 96.460938 299.839844 96.488281 C 300.117188 96.53125 300.390625 96.617188 300.667969 96.683594 C 300.941406 96.757812 301.210938 96.867188 301.484375 96.957031 L 302.289062 97.277344 L 303.082031 97.65625 L 303.917969 98.050781 L 304.269531 97.195312 L 304.601562 96.382812 L 304.976562 95.59375 C 305.117188 95.347656 305.246094 95.085938 305.394531 94.847656 C 305.554688 94.609375 305.695312 94.363281 305.867188 94.140625 C 305.953125 94.03125 306.035156 93.910156 306.125 93.804688 L 306.398438 93.488281 C 306.484375 93.378906 306.589844 93.289062 306.6875 93.191406 C 306.785156 93.09375 306.878906 92.988281 306.988281 92.90625 L 307.304688 92.644531 L 307.640625 92.40625 C 307.871094 92.261719 308.105469 92.117188 308.359375 92.007812 C 308.480469 91.945312 308.605469 91.890625 308.734375 91.84375 C 308.867188 91.796875 308.996094 91.742188 309.128906 91.707031 C 309.394531 91.625 309.667969 91.566406 309.949219 91.515625 C 310.507812 91.421875 311.09375 91.40625 311.679688 91.453125 C 311.972656 91.472656 312.269531 91.507812 312.5625 91.558594 C 312.859375 91.601562 313.152344 91.675781 313.449219 91.746094 C 314.039062 91.894531 314.625 92.085938 315.199219 92.328125 C 314.722656 91.921875 314.179688 91.589844 313.617188 91.300781 " fill-opacity="1" fill-rule="nonzero"/><path fill="#ffffff" d="M 144.410156 131.378906 C 151.605469 85.125 194.933594 53.457031 241.191406 60.652344 C 248.503906 61.792969 255.457031 63.835938 261.945312 66.648438 C 253.410156 61.886719 243.902344 58.53125 233.679688 56.941406 C 187.425781 49.746094 144.09375 81.414062 136.898438 127.667969 C 130.839844 166.609375 152.324219 203.472656 186.867188 218.453125 C 156.78125 201.671875 138.800781 167.414062 144.410156 131.378906 " fill-opacity="1" fill-rule="nonzero"/><path fill="#ffffff" d="M 110.679688 230.246094 C 110.679688 230.246094 114.703125 230.648438 120.578125 233.417969 L 137.460938 247.09375 C 137.460938 247.09375 135 247.265625 126.039062 242.496094 C 117.078125 237.730469 110.679688 230.246094 110.679688 230.246094 " fill-opacity="1" fill-rule="nonzero"/><g clip-path="url(#636b1b332c)"><path fill="#ffffff" d="M 63.828125 181.117188 L 38.761719 155.726562 C 42.796875 157.042969 47.582031 159.769531 52.957031 164.929688 C 57.46875 169.261719 63.21875 174.78125 69.386719 180.707031 L 101.683594 186.429688 C 103.578125 186.765625 105.335938 187.632812 106.761719 188.929688 L 113.5 195.0625 L 84.363281 195.09375 C 99.886719 210.011719 114.019531 223.605469 114.550781 224.175781 C 116.527344 225.101562 118.84375 224.878906 120.613281 223.59375 L 133.886719 213.957031 L 137.167969 217.265625 L 125.761719 235.054688 C 123.957031 234.019531 121.800781 232.875 119.84375 231.867188 L 79.941406 195.121094 L 71.6875 196.019531 L 112.058594 230.039062 L 89.992188 214.175781 L 121.441406 241.460938 L 115.113281 240.933594 C 113.726562 240.816406 112.398438 240.332031 111.265625 239.519531 L 104.152344 234.441406 C 103.417969 233.890625 82.90625 216.828125 63.371094 200.5625 L 30.191406 217.5625 L 30.375 216.445312 C 30.921875 213.140625 32.359375 210.042969 34.535156 207.5 L 49.992188 189.414062 C 45.632812 185.785156 41.621094 182.445312 38.257812 179.636719 C 29.476562 172.324219 26.699219 165.914062 26.175781 161.234375 C 26.097656 160.519531 26.097656 159.800781 26.167969 159.089844 L 54.796875 180.859375 L 63.828125 181.117188 " fill-opacity="1" fill-rule="nonzero"/></g><path fill="#ffffff" d="M 99.269531 217.015625 L 101.28125 218.890625 L 102.234375 217.855469 L 100.21875 215.980469 L 99.269531 217.015625 " fill-opacity="1" fill-rule="nonzero"/><path fill="#ffffff" d="M 95.023438 213.054688 L 97.035156 214.929688 L 97.984375 213.894531 L 95.972656 212.019531 L 95.023438 213.054688 " fill-opacity="1" fill-rule="nonzero"/><path fill="#ffffff" d="M 90.773438 209.09375 L 92.785156 210.96875 L 93.738281 209.933594 L 91.722656 208.058594 L 90.773438 209.09375 " fill-opacity="1" fill-rule="nonzero"/><path fill="#ffffff" d="M 86.527344 205.132812 L 88.539062 207.007812 L 89.488281 205.972656 L 87.472656 204.097656 L 86.527344 205.132812 " fill-opacity="1" fill-rule="nonzero"/><path fill="#ffffff" d="M 82.277344 201.171875 L 84.289062 203.046875 L 85.238281 202.011719 L 83.226562 200.136719 L 82.277344 201.171875 " fill-opacity="1" fill-rule="nonzero"/><path fill="#ffffff" d="M 78.027344 197.210938 L 80.039062 199.085938 L 80.992188 198.050781 L 78.976562 196.175781 L 78.027344 197.210938 " fill-opacity="1" fill-rule="nonzero"/><path fill="#ffffff" d="M 56.785156 177.402344 L 58.796875 179.28125 L 59.75 178.246094 L 57.734375 176.371094 L 56.785156 177.402344 " fill-opacity="1" fill-rule="nonzero"/><path fill="#ffffff" d="M 52.539062 173.441406 L 54.550781 175.320312 L 55.5 174.285156 L 53.488281 172.410156 L 52.539062 173.441406 " fill-opacity="1" fill-rule="nonzero"/><path fill="#ffffff" d="M 48.289062 169.480469 L 50.300781 171.355469 L 51.253906 170.324219 L 49.238281 168.445312 L 48.289062 169.480469 " fill-opacity="1" fill-rule="nonzero"/><path fill="#ffffff" d="M 44.042969 165.519531 L 46.054688 167.398438 L 47.003906 166.363281 L 44.988281 164.484375 L 44.042969 165.519531 " fill-opacity="1" fill-rule="nonzero"/><path fill="#ffffff" d="M 29.769531 156.109375 C 29.769531 156.109375 35.527344 154.628906 36.589844 156.296875 C 37.648438 157.960938 43.429688 163.855469 43.429688 163.855469 L 29.769531 156.109375 " fill-opacity="1" fill-rule="nonzero"/><path fill="#ffffff" d="M 176.980469 273.792969 C 199.550781 285.386719 223.570312 294.863281 248.464844 300.039062 C 261.199219 302.6875 274.34375 304.378906 287.335938 302.855469 C 296.472656 301.785156 306.796875 299.746094 313.015625 292.3125 C 321.214844 282.515625 317.046875 268.214844 312.113281 257.925781 C 310.679688 254.929688 309.089844 251.949219 307.207031 249.207031 C 314.914062 257.839844 320.640625 266.394531 323.980469 274.402344 C 325.046875 276.960938 325.871094 279.46875 326.441406 281.898438 C 328.039062 288.753906 327.609375 295.046875 324.847656 300.421875 C 312.117188 325.207031 254.753906 321.144531 196.730469 291.34375 C 173.953125 279.644531 154.460938 265.722656 139.949219 251.621094 C 151.101562 259.386719 163.542969 266.890625 176.980469 273.792969 " fill-opacity="1" fill-rule="nonzero"/><path fill="#ffffff" d="M 212.558594 138.390625 C 212.480469 137.984375 212.40625 137.582031 212.328125 137.195312 C 212.320312 137.191406 212.316406 137.1875 212.316406 137.1875 Z M 282.296875 166.582031 L 282.671875 164.707031 L 282.277344 165.320312 C 282.28125 165.6875 282.289062 166.109375 282.296875 166.582031 Z M 288.085938 149.523438 C 287.144531 150.902344 286.554688 152.007812 286.359375 152.390625 C 286.554688 152.003906 287.144531 150.898438 288.085938 149.523438 Z M 201.164062 113.339844 C 202.828125 114.914062 203.9375 116.261719 204.296875 116.71875 C 203.941406 116.265625 202.828125 114.917969 201.164062 113.339844 Z M 172.480469 121.566406 L 177.875 118.320312 C 172.109375 118.652344 164.726562 124.480469 164.726562 124.480469 C 164.726562 124.480469 181.972656 100.589844 204.421875 116.878906 C 204.421875 116.878906 203.09375 115.519531 201.160156 113.335938 C 199.640625 111.898438 197.652344 110.269531 195.347656 108.960938 L 202 110.949219 L 189.582031 103.082031 C 189.816406 103.113281 190.074219 103.171875 190.34375 103.25 L 195.890625 104.476562 C 196.015625 104.183594 194.671875 101.71875 192.691406 99.019531 C 190.46875 95.996094 187.457031 93.6875 184.113281 91.988281 C 183.90625 91.878906 183.703125 91.769531 183.511719 91.652344 C 183.570312 91.636719 183.628906 91.625 183.6875 91.613281 C 183.445312 91.609375 183.304688 91.609375 183.304688 91.609375 C 183.441406 91.597656 183.574219 91.601562 183.710938 91.605469 C 188.253906 90.601562 193.84375 92.605469 197.492188 95.183594 C 205.601562 100.695312 209.4375 110.46875 209.4375 110.46875 C 208.648438 105.996094 206.890625 90.105469 220.457031 84.902344 L 217.195312 91.324219 L 219.582031 88.480469 C 219.582031 88.480469 214.492188 100.617188 214.972656 102.496094 L 218.074219 97.328125 C 218.074219 97.328125 214.664062 106.644531 215.542969 112.023438 C 215.542969 112.023438 224.773438 97.113281 238.332031 95.035156 C 238.332031 95.035156 233.242188 99.121094 231.726562 102.445312 L 236.347656 98.925781 L 229.496094 106.851562 L 233.597656 104.324219 L 231.46875 108.5 C 231.46875 108.5 236.90625 104.484375 241.078125 108.644531 C 241.078125 108.644531 236.414062 108.128906 233.089844 110.898438 L 239.714844 109.5625 L 230.910156 113.164062 L 234.945312 112.78125 C 234.945312 112.78125 227.28125 114.453125 226.324219 115.894531 L 231.445312 115.136719 L 224.351562 119.933594 L 220.851562 122.296875 C 223.789062 120.347656 247.601562 105.375 259.121094 123.738281 C 259.121094 123.738281 254.863281 119.730469 249.164062 120.386719 L 255.257812 123.941406 C 255.257812 123.941406 245.253906 119.566406 240.875 119.894531 L 247.050781 124.371094 C 247.050781 124.371094 239.675781 120.832031 232.472656 121.59375 L 236.628906 122.917969 L 227.886719 123.632812 C 227.886719 123.632812 240.925781 123.785156 247.507812 136.332031 C 248.667969 138.421875 249.722656 140.882812 250.625 143.78125 L 243.738281 138.199219 L 246.089844 142.789062 C 246.089844 142.789062 241.226562 135.375 235.507812 132.503906 L 237.890625 137.246094 L 228.191406 129.261719 L 229.980469 132.371094 C 228.640625 131.886719 227.34375 131.71875 226.273438 132.148438 L 231.347656 136.710938 C 233.535156 138.679688 235.484375 140.910156 237.035156 143.417969 C 240.464844 148.960938 242.492188 156.035156 239.914062 164.332031 C 239.914062 164.332031 238.136719 153.074219 233.992188 149.746094 L 235.75 157.28125 C 235.75 157.28125 231.769531 144.917969 227.757812 140.871094 L 229.441406 147.8125 L 223.828125 137.222656 L 224.710938 141.601562 C 224.710938 141.601562 221.839844 132.820312 215.042969 130.601562 C 215.183594 131.273438 215.347656 132.015625 215.527344 132.832031 C 215.644531 133.332031 215.769531 133.859375 215.902344 134.414062 C 215.96875 134.6875 216.035156 134.96875 216.105469 135.257812 C 216.179688 135.546875 216.257812 135.839844 216.332031 136.140625 C 216.488281 136.738281 216.652344 137.363281 216.820312 138.007812 C 217 138.648438 217.1875 139.316406 217.382812 140.003906 C 217.96875 142.027344 218.644531 144.234375 219.429688 146.582031 L 224.859375 161.15625 C 226.199219 164.476562 227.648438 167.929688 229.15625 171.496094 C 230.871094 175.5625 232.660156 179.769531 234.421875 184.09375 C 236.183594 188.414062 237.90625 192.855469 239.488281 197.382812 C 239.894531 198.507812 240.261719 199.652344 240.648438 200.789062 C 241.019531 201.929688 241.378906 203.078125 241.738281 204.222656 C 241.910156 204.800781 242.082031 205.375 242.25 205.953125 L 242.507812 206.816406 L 242.746094 207.683594 C 242.910156 208.261719 243.066406 208.839844 243.226562 209.417969 C 243.386719 209.988281 243.53125 210.589844 243.679688 211.175781 C 243.828125 211.765625 243.972656 212.351562 244.121094 212.9375 C 244.25 213.5 244.378906 214.0625 244.507812 214.621094 C 244.574219 214.902344 244.636719 215.179688 244.703125 215.460938 L 244.75 215.667969 L 244.804688 215.933594 L 244.894531 216.363281 C 245.011719 216.9375 245.128906 217.511719 245.246094 218.082031 C 245.492188 219.222656 245.695312 220.363281 245.90625 221.496094 C 246.007812 222.0625 246.121094 222.625 246.210938 223.1875 C 246.304688 223.753906 246.398438 224.316406 246.488281 224.875 C 247.222656 229.355469 247.761719 233.722656 248.136719 237.882812 C 248.390625 240.675781 248.550781 243.367188 248.660156 245.945312 C 248.933594 246.183594 249.074219 246.300781 249.347656 246.539062 C 249.796875 246.480469 250.257812 246.441406 250.726562 246.425781 C 250.726562 246.425781 249.953125 246.683594 248.753906 247.414062 C 248.792969 248.082031 248.832031 248.746094 248.867188 249.394531 C 249.035156 252.503906 249.074219 255.398438 249.074219 258.027344 C 249.800781 257.035156 250.554688 255.96875 251.324219 254.832031 C 251.355469 252.851562 251.222656 250.851562 250.726562 249.472656 C 250.726562 249.472656 251.746094 250.609375 252.691406 252.789062 C 253.167969 252.046875 253.652344 251.289062 254.152344 250.515625 C 254.527344 249.902344 254.90625 249.28125 255.292969 248.652344 C 255.484375 248.335938 255.679688 248.019531 255.875 247.699219 C 256.0625 247.375 256.25 247.046875 256.445312 246.71875 C 256.824219 246.058594 257.210938 245.390625 257.605469 244.714844 C 257.980469 244.027344 258.363281 243.332031 258.75 242.628906 C 258.941406 242.277344 259.136719 241.925781 259.332031 241.570312 C 259.515625 241.210938 259.703125 240.847656 259.894531 240.484375 C 260.269531 239.757812 260.648438 239.023438 261.035156 238.285156 C 262.507812 235.292969 264 232.171875 265.359375 228.929688 C 265.699219 228.121094 266.054688 227.308594 266.386719 226.488281 C 266.710938 225.664062 267.035156 224.839844 267.363281 224.007812 C 267.523438 223.59375 267.6875 223.179688 267.851562 222.761719 C 268.015625 222.347656 268.160156 221.925781 268.3125 221.507812 C 268.617188 220.664062 268.921875 219.820312 269.226562 218.980469 C 269.542969 218.140625 269.8125 217.285156 270.097656 216.4375 C 270.375 215.585938 270.65625 214.734375 270.9375 213.886719 C 271.472656 212.183594 271.96875 210.472656 272.480469 208.777344 C 272.9375 207.070312 273.394531 205.371094 273.84375 203.695312 C 274.246094 202.007812 274.640625 200.335938 275.027344 198.691406 C 275.390625 197.042969 275.707031 195.414062 276.035156 193.816406 C 276.117188 193.417969 276.207031 193.023438 276.273438 192.625 C 276.339844 192.230469 276.410156 191.835938 276.476562 191.441406 C 276.613281 190.660156 276.746094 189.882812 276.878906 189.117188 C 277.007812 188.355469 277.152344 187.601562 277.261719 186.855469 C 277.367188 186.109375 277.46875 185.371094 277.570312 184.648438 C 277.675781 183.925781 277.773438 183.210938 277.871094 182.511719 C 277.921875 182.164062 277.972656 181.816406 278.019531 181.476562 C 278.066406 181.132812 278.097656 180.789062 278.136719 180.453125 C 278.285156 179.101562 278.425781 177.8125 278.558594 176.578125 C 278.59375 176.273438 278.625 175.96875 278.660156 175.667969 C 278.695312 175.367188 278.722656 175.070312 278.742188 174.777344 C 278.789062 174.195312 278.832031 173.625 278.875 173.078125 C 278.960938 171.976562 279.039062 170.945312 279.113281 169.988281 C 279.148438 169.515625 279.195312 169.054688 279.210938 168.617188 C 279.230469 168.179688 279.25 167.761719 279.269531 167.367188 C 279.300781 166.667969 279.328125 166.042969 279.355469 165.480469 C 275.058594 168.578125 274.289062 175.140625 274.289062 175.140625 L 274.289062 171.570312 L 271.566406 180.761719 L 271.785156 175.050781 C 269.28125 178.863281 268.117188 189.1875 268.117188 189.1875 L 268.300781 183 C 265.578125 186.265625 265.96875 195.375 265.96875 195.375 C 262.757812 189.511719 263.070312 183.855469 264.710938 179.078125 C 265.414062 177.042969 267.105469 173.980469 268.390625 172.25 L 271.566406 167.972656 C 270.660156 167.808594 269.671875 168.144531 268.695312 168.738281 L 269.609375 166.015625 L 263.265625 173.8125 L 264.382812 169.714844 C 260.351562 172.875 257.714844 179.460938 257.714844 179.460938 L 258.828125 175.488281 L 254.3125 180.957031 C 254.558594 178.539062 255 176.445312 255.578125 174.621094 C 258.753906 163.738281 268.953125 161.550781 268.953125 161.550781 L 261.984375 162.378906 L 265.035156 160.679688 C 259.265625 161.226562 254.042969 165.167969 254.042969 165.167969 L 258.175781 160.679688 C 254.691406 161.113281 247.539062 166.132812 247.539062 166.132812 L 251.75 162.378906 C 247.179688 162.765625 244.476562 166.585938 244.476562 166.585938 C 250.597656 150.355469 271.644531 158.328125 274.257812 159.390625 L 271.136719 158.09375 L 264.816406 155.453125 L 268.953125 155.234375 C 267.972656 154.257812 261.699219 154.160156 261.699219 154.160156 L 264.925781 153.820312 L 257.449219 152.390625 L 262.855469 152.390625 C 259.808594 150.746094 256.234375 151.886719 256.234375 151.886719 C 258.847656 147.96875 263.746094 150.253906 263.746094 150.253906 L 261.414062 147.316406 L 265.035156 148.648438 L 258.40625 143.515625 L 262.585938 145.546875 C 260.871094 143.175781 256.234375 140.78125 256.234375 140.78125 C 267.195312 140.261719 276.792969 150.496094 276.792969 150.496094 C 276.628906 146.132812 272.480469 139.371094 272.480469 139.371094 L 275.730469 142.933594 C 275.8125 141.382812 269.898438 132.667969 269.898438 132.667969 L 272.222656 134.523438 L 268.644531 130 C 280.109375 131.933594 281.246094 144.671875 281.335938 148.308594 C 281.335938 148.308594 282.796875 140.03125 288.28125 134.425781 C 290.738281 131.828125 294.800781 129.371094 298.523438 129.4375 C 298.628906 129.410156 298.734375 129.390625 298.839844 129.378906 C 298.839844 129.378906 298.730469 129.398438 298.542969 129.441406 C 298.59375 129.441406 298.640625 129.441406 298.6875 129.441406 C 298.566406 129.554688 298.4375 129.667969 298.304688 129.773438 C 295.859375 131.722656 293.804688 134.132812 292.519531 136.980469 C 291.476562 139.28125 290.875 141.261719 291.011719 141.460938 L 295.167969 139.621094 C 295.367188 139.515625 295.558594 139.429688 295.738281 139.371094 L 287.246094 147.503906 L 292.144531 144.894531 C 290.546875 146.285156 289.246094 147.875 288.28125 149.246094 C 287.113281 151.261719 286.285156 152.539062 286.285156 152.539062 C 301.308594 136.207031 318.621094 152.210938 318.621094 152.210938 C 318.621094 152.210938 311.90625 148.8125 307.332031 149.464844 L 312.078125 151.15625 C 312.078125 151.15625 300.964844 149.027344 297.535156 150.796875 L 304.691406 151.734375 C 304.691406 151.734375 293.730469 151.675781 291.167969 153.875 L 295.273438 153.875 C 290.769531 155.179688 287.589844 156.457031 287.589844 156.457031 C 317.96875 154.5 312.742188 187.488281 312.742188 187.488281 C 312.742188 187.488281 310.683594 177.390625 308.148438 175.675781 L 309.941406 183.109375 C 309.941406 183.109375 305.863281 172.574219 302.109375 169.472656 L 304.671875 176.703125 C 304.671875 176.703125 298.105469 165.144531 294.429688 163.429688 L 295.375 167.929688 L 290.023438 162.285156 L 292.308594 165.449219 C 290.609375 164.121094 289.15625 163.050781 288.097656 162.300781 C 288.988281 162.960938 289.796875 163.628906 290.527344 164.300781 L 294.070312 170.042969 L 292.109375 169.5 C 295.265625 172.984375 295.703125 178.972656 295.703125 178.972656 L 293.417969 174.289062 C 295.808594 180.277344 294.085938 186.933594 294.085938 186.933594 L 293.523438 182.105469 C 293.726562 185.996094 291.183594 191.261719 291.183594 191.261719 L 289.203125 185.285156 C 289.203125 185.285156 289.542969 189.890625 289.203125 189.554688 C 288.867188 189.207031 286.265625 181.585938 286.15625 178.863281 C 286.15625 178.863281 286.234375 185.992188 286.15625 185.882812 C 286.082031 185.773438 284.742188 179.078125 284.742188 174.945312 L 283.3125 180.5 L 283.3125 169.714844 C 283.3125 169.714844 282.832031 170.09375 282.347656 170.46875 C 282.34375 170.722656 282.335938 170.976562 282.335938 171.242188 C 282.320312 172.199219 282.304688 173.238281 282.289062 174.347656 C 282.277344 174.902344 282.269531 175.472656 282.261719 176.0625 C 282.257812 176.359375 282.246094 176.660156 282.230469 176.960938 C 282.214844 177.265625 282.203125 177.570312 282.1875 177.882812 C 282.128906 179.125 282.066406 180.433594 282 181.800781 C 281.984375 182.144531 281.972656 182.488281 281.945312 182.835938 C 281.917969 183.183594 281.890625 183.535156 281.863281 183.890625 C 281.804688 184.597656 281.75 185.324219 281.691406 186.058594 C 281.632812 186.792969 281.574219 187.542969 281.515625 188.300781 C 281.449219 189.0625 281.351562 189.832031 281.269531 190.609375 C 281.183594 191.394531 281.097656 192.183594 281.007812 192.984375 C 280.964844 193.386719 280.921875 193.789062 280.875 194.195312 C 280.835938 194.601562 280.765625 195.003906 280.710938 195.414062 C 280.476562 197.046875 280.257812 198.722656 279.996094 200.417969 C 279.703125 202.113281 279.40625 203.832031 279.101562 205.578125 C 278.75 207.3125 278.390625 209.070312 278.03125 210.839844 C 277.617188 212.597656 277.21875 214.378906 276.777344 216.15625 C 276.542969 217.042969 276.308594 217.929688 276.074219 218.820312 C 275.839844 219.707031 275.617188 220.601562 275.347656 221.480469 C 275.085938 222.367188 274.828125 223.25 274.566406 224.132812 C 274.433594 224.574219 274.3125 225.019531 274.171875 225.457031 C 274.027344 225.890625 273.886719 226.332031 273.746094 226.765625 C 273.464844 227.640625 273.179688 228.515625 272.898438 229.382812 C 272.609375 230.25 272.292969 231.109375 271.992188 231.964844 C 270.800781 235.402344 269.453125 238.730469 268.109375 241.933594 C 267.757812 242.730469 267.40625 243.515625 267.0625 244.296875 C 266.890625 244.6875 266.71875 245.078125 266.546875 245.464844 C 266.367188 245.847656 266.1875 246.226562 266.007812 246.605469 C 265.652344 247.363281 265.296875 248.113281 264.945312 248.855469 C 264.578125 249.589844 264.21875 250.3125 263.859375 251.03125 C 263.679688 251.386719 263.503906 251.742188 263.328125 252.09375 C 263.140625 252.441406 262.957031 252.789062 262.777344 253.132812 C 262.414062 253.820312 262.054688 254.5 261.699219 255.160156 C 261.332031 255.820312 260.972656 256.46875 260.617188 257.105469 C 260.4375 257.421875 260.265625 257.738281 260.085938 258.046875 C 259.90625 258.355469 259.726562 258.664062 259.546875 258.964844 C 259.414062 259.191406 259.285156 259.417969 259.152344 259.640625 C 261.917969 257.242188 266.25 254.417969 270.703125 255.230469 C 270.703125 255.230469 262.238281 257.597656 262.238281 263.355469 C 262.238281 263.355469 270.804688 257.597656 276.339844 266.402344 C 276.339844 266.402344 268.125 262 265.351562 265.726562 C 264.460938 266.921875 263.75 268.292969 263.199219 269.601562 C 265.078125 270.066406 266.949219 270.53125 268.804688 270.992188 C 269.992188 271.285156 271.148438 271.554688 272.277344 271.792969 C 272.835938 271.914062 273.386719 272.03125 273.929688 272.132812 L 281.421875 272.972656 C 281.4375 272.972656 281.457031 272.972656 281.472656 272.976562 C 282.386719 272.964844 283.253906 272.917969 284.066406 272.816406 C 284.867188 272.707031 285.621094 272.554688 286.332031 272.351562 L 286.609375 272.285156 C 286.695312 272.253906 286.777344 272.21875 286.859375 272.1875 L 287.367188 271.996094 L 287.628906 271.90625 L 287.695312 271.882812 C 287.203125 272.195312 287.585938 271.957031 287.488281 272.019531 L 287.539062 271.992188 L 287.734375 271.886719 C 287.992188 271.75 288.25 271.609375 288.507812 271.472656 L 288.699219 271.367188 L 288.796875 271.316406 C 288.832031 271.296875 288.828125 271.296875 288.84375 271.285156 C 288.894531 271.257812 288.941406 271.226562 288.992188 271.199219 C 289.097656 271.144531 289.203125 271.09375 289.316406 271.042969 C 289.367188 271.03125 289.445312 270.957031 289.507812 270.914062 L 289.71875 270.773438 C 289.851562 270.675781 290.015625 270.601562 290.132812 270.492188 C 291.171875 269.691406 292.03125 268.738281 292.679688 267.558594 C 293.3125 266.375 293.738281 264.988281 293.929688 263.523438 C 294.121094 262.058594 294.085938 260.53125 293.878906 259.050781 C 293.671875 257.570312 293.292969 256.140625 292.816406 254.816406 C 292.332031 253.488281 291.757812 252.261719 291.128906 251.15625 C 290.972656 250.882812 290.800781 250.625 290.640625 250.359375 C 290.5625 250.230469 290.484375 250.097656 290.398438 249.972656 C 290.316406 249.847656 290.230469 249.726562 290.144531 249.609375 C 289.972656 249.363281 289.804688 249.125 289.644531 248.894531 C 289.46875 248.667969 289.296875 248.449219 289.132812 248.234375 C 289.046875 248.128906 288.960938 248.023438 288.878906 247.917969 C 288.792969 247.820312 288.703125 247.722656 288.617188 247.628906 C 288.441406 247.433594 288.273438 247.246094 288.109375 247.0625 C 287.773438 246.707031 287.4375 246.382812 287.128906 246.070312 C 286.804688 245.777344 286.492188 245.519531 286.207031 245.269531 C 286.097656 245.171875 285.996094 245.089844 285.890625 245.011719 C 285.890625 245.011719 285.089844 244.4375 284.601562 244.082031 L 284.335938 243.894531 C 284.269531 243.847656 284.21875 243.808594 284.21875 243.808594 C 284.21875 243.808594 285.480469 243.894531 287.1875 244.203125 C 287.230469 244.207031 287.28125 244.214844 287.316406 244.21875 C 287.375 244.230469 287.425781 244.246094 287.480469 244.257812 C 288.035156 244.363281 288.625 244.492188 289.230469 244.652344 C 289.242188 244.65625 289.253906 244.660156 289.261719 244.660156 C 289.890625 244.828125 290.523438 245.015625 291.140625 245.226562 C 293.480469 246.023438 295.710938 247.140625 297.753906 248.535156 C 301.917969 251.378906 305.179688 255.316406 307.484375 259.78125 C 311.789062 268.121094 315.933594 280.539062 309.308594 288.808594 C 309.246094 288.890625 309.179688 288.96875 309.113281 289.046875 C 304.101562 295.039062 294.992188 296.835938 286.746094 297.804688 C 283.683594 298.160156 280.453125 298.34375 277.152344 298.34375 C 275.597656 298.34375 274.007812 298.292969 272.390625 298.214844 L 272.355469 298.183594 C 247.742188 296.839844 215.5625 287.191406 184.109375 271.679688 C 192.71875 270.929688 199.984375 268.726562 200.769531 268.460938 C 200.769531 268.460938 200.785156 268.46875 200.796875 268.472656 C 202.414062 267.953125 204.0625 267.460938 205.773438 267.039062 C 210.535156 265.878906 215.613281 265.109375 220.824219 264.691406 C 221.421875 264.640625 222.019531 264.597656 222.621094 264.558594 C 219.398438 261.539062 214.652344 258.671875 207.722656 257.261719 C 207.722656 257.261719 223.300781 258.953125 227.363281 263.355469 L 223.976562 255.566406 L 229.109375 260.984375 C 229.109375 260.984375 229.054688 245.746094 233.121094 244.394531 L 234.8125 259.632812 C 234.8125 259.632812 235.183594 258.695312 235.933594 257.328125 C 236.226562 254.910156 236.523438 252.246094 236.722656 249.363281 C 236.796875 248.34375 236.863281 247.300781 236.925781 246.230469 C 236.992188 243.75 237.011719 241.140625 236.945312 238.421875 C 236.855469 234.5 236.621094 230.367188 236.210938 226.089844 C 236.160156 225.554688 236.109375 225.019531 236.058594 224.480469 C 236.007812 223.941406 235.933594 223.402344 235.871094 222.859375 C 235.746094 221.777344 235.625 220.683594 235.464844 219.585938 C 235.386719 219.039062 235.3125 218.488281 235.238281 217.9375 L 235.179688 217.523438 L 235.167969 217.417969 L 235.160156 217.367188 C 235.148438 217.304688 235.167969 217.394531 235.160156 217.367188 L 235.128906 217.15625 C 235.082031 216.871094 235.035156 216.589844 234.988281 216.304688 C 234.898438 215.738281 234.804688 215.171875 234.714844 214.601562 C 234.617188 214.058594 234.515625 213.511719 234.417969 212.96875 C 234.316406 212.425781 234.230469 211.886719 234.109375 211.332031 C 233.996094 210.777344 233.882812 210.222656 233.769531 209.667969 L 233.597656 208.832031 L 233.410156 208 C 233.28125 207.445312 233.15625 206.886719 233.03125 206.328125 C 232.761719 205.214844 232.492188 204.097656 232.207031 202.980469 C 231.910156 201.867188 231.632812 200.746094 231.3125 199.632812 C 230.078125 195.171875 228.6875 190.722656 227.234375 186.351562 C 225.78125 181.976562 224.285156 177.675781 222.839844 173.5 C 221.394531 169.320312 220.003906 165.269531 218.75 161.398438 C 217.496094 157.53125 216.375 153.84375 215.429688 150.421875 C 214.484375 146.996094 213.714844 143.832031 213.101562 141.015625 C 213 140.535156 212.902344 140.070312 212.804688 139.613281 L 214.984375 150.398438 L 211.859375 143.945312 C 212.878906 149.011719 212.894531 157.542969 212.832031 157.699219 C 212.765625 157.851562 211.09375 149.097656 211.09375 149.097656 C 211.632812 152.457031 210.332031 162.441406 210.003906 162.949219 C 209.675781 163.449219 208.949219 157.722656 208.949219 157.722656 L 208.003906 165.53125 C 208.003906 165.53125 203.585938 159.714844 202.867188 154.894531 L 203.378906 160.949219 C 203.378906 160.949219 199.617188 153.222656 201.070312 145.292969 L 199.425781 151.59375 C 199.425781 151.59375 198.480469 144.148438 201.484375 139.097656 L 199.21875 140.25 L 202.136719 132.339844 C 202.863281 131.335938 203.6875 130.316406 204.617188 129.289062 C 203.507812 130.472656 201.988281 132.136719 200.238281 134.183594 L 202.253906 129.742188 L 197.09375 137.988281 L 197.136719 132.238281 C 193.058594 135.246094 187.878906 151.035156 187.878906 151.035156 L 189.226562 141.539062 C 185.394531 146.269531 183.003906 160.1875 183.003906 160.1875 L 183.359375 150.636719 C 180.683594 153.367188 180.660156 166.246094 180.660156 166.246094 C 180.660156 166.246094 166.089844 127.121094 203.792969 122.003906 C 203.792969 122.003906 199.582031 121.222656 193.738281 120.742188 L 198.773438 119.722656 C 195.085938 117.664062 181.671875 120.445312 181.671875 120.445312 L 190.207031 117.527344 C 185.570312 116.207031 172.480469 121.566406 172.480469 121.566406 " fill-opacity="1" fill-rule="nonzero"/><g clip-path="url(#15e36dc18a)"><path fill="#ffffff" d="M 59.496094 247.902344 C 59.542969 248.34375 59.628906 248.78125 59.753906 249.210938 C 59.875 249.640625 60.03125 250.054688 60.226562 250.457031 C 60.417969 250.859375 60.644531 251.242188 60.902344 251.605469 C 61.160156 251.96875 61.445312 252.308594 61.761719 252.625 C 62.074219 252.9375 62.414062 253.226562 62.777344 253.484375 C 63.140625 253.742188 63.523438 253.964844 63.925781 254.160156 C 64.328125 254.351562 64.746094 254.507812 65.171875 254.632812 C 65.601562 254.753906 66.039062 254.839844 66.480469 254.886719 C 69.300781 255.167969 72.128906 255.296875 74.964844 255.273438 C 72.128906 255.25 69.300781 255.378906 66.480469 255.660156 C 66.039062 255.707031 65.601562 255.792969 65.171875 255.917969 C 64.746094 256.039062 64.328125 256.195312 63.925781 256.390625 C 63.523438 256.582031 63.140625 256.808594 62.777344 257.066406 C 62.414062 257.324219 62.074219 257.609375 61.761719 257.925781 C 61.445312 258.238281 61.160156 258.578125 60.902344 258.941406 C 60.644531 259.304688 60.417969 259.691406 60.226562 260.089844 C 60.03125 260.492188 59.875 260.910156 59.753906 261.335938 C 59.628906 261.765625 59.542969 262.203125 59.496094 262.644531 C 59.214844 265.464844 59.085938 268.296875 59.109375 271.128906 C 59.132812 268.296875 59.003906 265.464844 58.722656 262.644531 C 58.675781 262.203125 58.589844 261.765625 58.464844 261.335938 C 58.34375 260.910156 58.1875 260.492188 57.996094 260.089844 C 57.800781 259.691406 57.578125 259.304688 57.320312 258.941406 C 57.0625 258.578125 56.773438 258.238281 56.460938 257.925781 C 56.144531 257.609375 55.804688 257.324219 55.441406 257.066406 C 55.078125 256.808594 54.695312 256.582031 54.292969 256.390625 C 53.890625 256.195312 53.476562 256.039062 53.046875 255.917969 C 52.617188 255.792969 52.179688 255.707031 51.738281 255.660156 C 48.917969 255.378906 46.089844 255.25 43.253906 255.273438 C 46.089844 255.296875 48.917969 255.167969 51.738281 254.886719 C 52.179688 254.839844 52.617188 254.753906 53.046875 254.628906 C 53.476562 254.507812 53.890625 254.351562 54.292969 254.15625 C 54.695312 253.964844 55.078125 253.742188 55.441406 253.484375 C 55.804688 253.226562 56.144531 252.9375 56.460938 252.625 C 56.773438 252.308594 57.0625 251.96875 57.320312 251.605469 C 57.578125 251.242188 57.800781 250.859375 57.996094 250.457031 C 58.1875 250.054688 58.34375 249.636719 58.464844 249.210938 C 58.589844 248.78125 58.675781 248.34375 58.722656 247.902344 C 59.003906 245.082031 59.132812 242.253906 59.109375 239.417969 C 59.085938 242.253906 59.214844 245.082031 59.496094 247.902344 Z M 59.496094 247.902344 " fill-opacity="1" fill-rule="nonzero"/></g><g clip-path="url(#8bfa2c6024)"><path fill="#ffffff" d="M 77.199219 259.566406 C 77.25 260.019531 77.371094 260.449219 77.566406 260.859375 C 77.765625 261.269531 78.023438 261.636719 78.34375 261.957031 C 78.667969 262.277344 79.03125 262.535156 79.441406 262.734375 C 79.851562 262.929688 80.28125 263.050781 80.734375 263.101562 C 82.160156 263.246094 83.59375 263.308594 85.027344 263.296875 C 83.59375 263.285156 82.160156 263.351562 80.734375 263.492188 C 80.28125 263.542969 79.851562 263.664062 79.441406 263.863281 C 79.03125 264.058594 78.667969 264.316406 78.34375 264.640625 C 78.023438 264.960938 77.765625 265.324219 77.566406 265.734375 C 77.371094 266.144531 77.25 266.578125 77.199219 267.027344 C 77.058594 268.457031 76.992188 269.886719 77.003906 271.320312 C 77.015625 269.886719 76.949219 268.457031 76.808594 267.027344 C 76.757812 266.578125 76.636719 266.144531 76.4375 265.734375 C 76.242188 265.324219 75.984375 264.960938 75.664062 264.640625 C 75.339844 264.316406 74.976562 264.058594 74.566406 263.863281 C 74.15625 263.664062 73.726562 263.542969 73.273438 263.492188 C 71.84375 263.351562 70.414062 263.285156 68.980469 263.296875 C 70.414062 263.308594 71.84375 263.246094 73.273438 263.101562 C 73.726562 263.050781 74.15625 262.929688 74.566406 262.734375 C 74.976562 262.535156 75.339844 262.277344 75.664062 261.957031 C 75.984375 261.636719 76.242188 261.269531 76.4375 260.859375 C 76.636719 260.449219 76.757812 260.019531 76.808594 259.566406 C 76.949219 258.140625 77.015625 256.707031 77.003906 255.273438 C 76.992188 256.707031 77.058594 258.140625 77.199219 259.566406 Z M 77.199219 259.566406 " fill-opacity="1" fill-rule="nonzero"/></g><path fill="#ffffff" d="M 71.167969 243.734375 C 71.199219 244.007812 71.273438 244.273438 71.394531 244.523438 C 71.511719 244.773438 71.671875 244.996094 71.867188 245.191406 C 72.0625 245.386719 72.285156 245.546875 72.535156 245.664062 C 72.785156 245.785156 73.050781 245.859375 73.324219 245.890625 C 74.199219 245.976562 75.070312 246.019531 75.949219 246.011719 C 75.070312 246.003906 74.199219 246.042969 73.324219 246.128906 C 73.050781 246.160156 72.785156 246.234375 72.535156 246.355469 C 72.285156 246.476562 72.0625 246.632812 71.867188 246.828125 C 71.671875 247.027344 71.511719 247.25 71.394531 247.5 C 71.273438 247.75 71.199219 248.011719 71.167969 248.289062 C 71.082031 249.160156 71.039062 250.035156 71.046875 250.910156 C 71.054688 250.035156 71.015625 249.160156 70.929688 248.289062 C 70.898438 248.011719 70.824219 247.75 70.703125 247.5 C 70.582031 247.25 70.425781 247.027344 70.230469 246.828125 C 70.03125 246.632812 69.808594 246.476562 69.558594 246.355469 C 69.308594 246.234375 69.046875 246.160156 68.769531 246.128906 C 67.898438 246.042969 67.023438 246.003906 66.148438 246.011719 C 67.023438 246.019531 67.898438 245.976562 68.769531 245.890625 C 69.046875 245.859375 69.308594 245.785156 69.558594 245.664062 C 69.808594 245.546875 70.03125 245.386719 70.230469 245.191406 C 70.425781 244.996094 70.582031 244.773438 70.703125 244.523438 C 70.824219 244.273438 70.898438 244.007812 70.925781 243.734375 C 71.015625 242.859375 71.054688 241.988281 71.046875 241.109375 C 71.039062 241.988281 71.082031 242.859375 71.167969 243.734375 Z M 71.167969 243.734375 " fill-opacity="1" fill-rule="nonzero"/><g clip-path="url(#39351c0f32)"><path fill="#ffffff" d="M 136.800781 58.25 C 136.847656 58.691406 136.933594 59.128906 137.054688 59.558594 C 137.179688 59.984375 137.335938 60.402344 137.527344 60.804688 C 137.722656 61.203125 137.945312 61.585938 138.203125 61.953125 C 138.460938 62.316406 138.75 62.65625 139.0625 62.96875 C 139.378906 63.285156 139.71875 63.570312 140.082031 63.828125 C 140.445312 64.085938 140.828125 64.3125 141.230469 64.503906 C 141.632812 64.699219 142.046875 64.855469 142.476562 64.976562 C 142.90625 65.101562 143.34375 65.183594 143.785156 65.234375 C 146.605469 65.515625 149.433594 65.644531 152.269531 65.621094 C 149.433594 65.597656 146.605469 65.726562 143.785156 66.007812 C 143.34375 66.054688 142.90625 66.140625 142.476562 66.261719 C 142.046875 66.386719 141.632812 66.542969 141.230469 66.734375 C 140.828125 66.929688 140.445312 67.152344 140.082031 67.410156 C 139.71875 67.667969 139.378906 67.957031 139.0625 68.269531 C 138.75 68.585938 138.460938 68.925781 138.203125 69.289062 C 137.945312 69.652344 137.722656 70.035156 137.527344 70.4375 C 137.335938 70.839844 137.179688 71.253906 137.054688 71.683594 C 136.933594 72.113281 136.847656 72.550781 136.800781 72.992188 C 136.519531 75.8125 136.390625 78.640625 136.414062 81.476562 C 136.4375 78.640625 136.308594 75.8125 136.027344 72.992188 C 135.976562 72.550781 135.894531 72.113281 135.769531 71.683594 C 135.648438 71.253906 135.492188 70.839844 135.296875 70.4375 C 135.105469 70.035156 134.878906 69.652344 134.621094 69.289062 C 134.363281 68.925781 134.078125 68.585938 133.761719 68.269531 C 133.449219 67.957031 133.109375 67.667969 132.746094 67.410156 C 132.378906 67.152344 131.996094 66.929688 131.597656 66.734375 C 131.195312 66.542969 130.777344 66.386719 130.351562 66.261719 C 129.921875 66.140625 129.484375 66.054688 129.042969 66.007812 C 126.21875 65.726562 123.390625 65.597656 120.558594 65.621094 C 123.390625 65.644531 126.21875 65.515625 129.042969 65.234375 C 129.484375 65.183594 129.921875 65.101562 130.351562 64.976562 C 130.777344 64.855469 131.195312 64.699219 131.597656 64.503906 C 131.996094 64.3125 132.378906 64.085938 132.746094 63.828125 C 133.109375 63.570312 133.449219 63.285156 133.761719 62.96875 C 134.078125 62.65625 134.363281 62.316406 134.621094 61.953125 C 134.878906 61.585938 135.105469 61.203125 135.296875 60.804688 C 135.492188 60.402344 135.648438 59.984375 135.769531 59.558594 C 135.894531 59.128906 135.976562 58.691406 136.027344 58.25 C 136.308594 55.425781 136.4375 52.597656 136.414062 49.765625 C 136.390625 52.597656 136.519531 55.425781 136.800781 58.25 Z M 136.800781 58.25 " fill-opacity="1" fill-rule="nonzero"/></g><g clip-path="url(#ac283d7812)"><path fill="#ffffff" d="M 154.503906 69.914062 C 154.550781 70.367188 154.675781 70.796875 154.871094 71.207031 C 155.066406 71.617188 155.328125 71.980469 155.648438 72.304688 C 155.96875 72.625 156.335938 72.882812 156.746094 73.082031 C 157.15625 73.277344 157.585938 73.398438 158.039062 73.449219 C 159.464844 73.589844 160.898438 73.65625 162.332031 73.644531 C 160.898438 73.632812 159.464844 73.699219 158.039062 73.839844 C 157.585938 73.890625 157.15625 74.011719 156.746094 74.207031 C 156.335938 74.40625 155.96875 74.664062 155.648438 74.984375 C 155.328125 75.308594 155.066406 75.671875 154.871094 76.082031 C 154.675781 76.492188 154.550781 76.921875 154.503906 77.375 C 154.359375 78.800781 154.296875 80.234375 154.308594 81.667969 C 154.320312 80.234375 154.253906 78.800781 154.113281 77.375 C 154.0625 76.921875 153.9375 76.492188 153.742188 76.082031 C 153.546875 75.671875 153.289062 75.308594 152.964844 74.984375 C 152.644531 74.664062 152.277344 74.40625 151.871094 74.207031 C 151.460938 74.011719 151.027344 73.890625 150.578125 73.839844 C 149.148438 73.699219 147.71875 73.632812 146.285156 73.644531 C 147.71875 73.65625 149.148438 73.589844 150.578125 73.449219 C 151.027344 73.398438 151.460938 73.277344 151.871094 73.082031 C 152.277344 72.882812 152.644531 72.625 152.964844 72.304688 C 153.289062 71.980469 153.546875 71.617188 153.742188 71.207031 C 153.9375 70.796875 154.0625 70.367188 154.113281 69.914062 C 154.253906 68.488281 154.320312 67.054688 154.308594 65.621094 C 154.296875 67.054688 154.359375 68.488281 154.503906 69.914062 Z M 154.503906 69.914062 " fill-opacity="1" fill-rule="nonzero"/></g><path fill="#ffffff" d="M 148.472656 54.078125 C 148.5 54.355469 148.578125 54.617188 148.695312 54.867188 C 148.816406 55.117188 148.976562 55.34375 149.171875 55.539062 C 149.367188 55.734375 149.589844 55.894531 149.839844 56.011719 C 150.089844 56.132812 150.355469 56.207031 150.628906 56.238281 C 151.5 56.324219 152.375 56.363281 153.25 56.355469 C 152.375 56.351562 151.5 56.390625 150.628906 56.476562 C 150.355469 56.507812 150.089844 56.582031 149.839844 56.703125 C 149.589844 56.820312 149.367188 56.980469 149.171875 57.175781 C 148.976562 57.371094 148.816406 57.597656 148.695312 57.847656 C 148.578125 58.097656 148.5 58.359375 148.472656 58.636719 C 148.382812 59.507812 148.34375 60.378906 148.351562 61.257812 C 148.359375 60.378906 148.320312 59.507812 148.230469 58.636719 C 148.203125 58.359375 148.128906 58.097656 148.007812 57.847656 C 147.886719 57.597656 147.730469 57.371094 147.53125 57.175781 C 147.335938 56.980469 147.113281 56.820312 146.863281 56.703125 C 146.613281 56.582031 146.351562 56.507812 146.074219 56.476562 C 145.203125 56.390625 144.328125 56.351562 143.453125 56.355469 C 144.328125 56.363281 145.203125 56.324219 146.074219 56.238281 C 146.351562 56.207031 146.613281 56.132812 146.863281 56.011719 C 147.113281 55.894531 147.335938 55.734375 147.53125 55.539062 C 147.730469 55.34375 147.886719 55.117188 148.007812 54.867188 C 148.125 54.617188 148.203125 54.355469 148.230469 54.078125 C 148.320312 53.207031 148.359375 52.332031 148.351562 51.457031 C 148.34375 52.332031 148.382812 53.207031 148.472656 54.078125 Z M 148.472656 54.078125 " fill-opacity="1" fill-rule="nonzero"/><g clip-path="url(#f38d8e6d43)"><path fill="#ffffff" d="M 323.390625 215.925781 C 323.4375 216.371094 323.523438 216.804688 323.648438 217.234375 C 323.769531 217.664062 323.925781 218.078125 324.117188 218.480469 C 324.3125 218.882812 324.535156 219.265625 324.792969 219.628906 C 325.050781 219.992188 325.339844 220.332031 325.652344 220.648438 C 325.96875 220.964844 326.308594 221.25 326.671875 221.507812 C 327.035156 221.765625 327.417969 221.992188 327.820312 222.183594 C 328.222656 222.375 328.640625 222.535156 329.066406 222.65625 C 329.496094 222.777344 329.933594 222.863281 330.375 222.910156 C 333.195312 223.191406 336.023438 223.320312 338.859375 223.296875 C 336.023438 223.277344 333.195312 223.40625 330.375 223.683594 C 329.933594 223.734375 329.496094 223.820312 329.066406 223.941406 C 328.640625 224.0625 328.222656 224.222656 327.820312 224.414062 C 327.417969 224.605469 327.035156 224.832031 326.671875 225.089844 C 326.308594 225.347656 325.96875 225.632812 325.652344 225.949219 C 325.339844 226.265625 325.050781 226.605469 324.792969 226.96875 C 324.535156 227.332031 324.3125 227.714844 324.121094 228.117188 C 323.925781 228.519531 323.769531 228.933594 323.648438 229.363281 C 323.523438 229.792969 323.4375 230.226562 323.390625 230.671875 C 323.109375 233.492188 322.980469 236.320312 323.003906 239.15625 C 323.027344 236.320312 322.898438 233.492188 322.617188 230.671875 C 322.570312 230.226562 322.484375 229.792969 322.359375 229.363281 C 322.238281 228.933594 322.082031 228.519531 321.886719 228.117188 C 321.695312 227.714844 321.46875 227.332031 321.210938 226.96875 C 320.957031 226.605469 320.667969 226.265625 320.351562 225.949219 C 320.039062 225.632812 319.699219 225.347656 319.335938 225.089844 C 318.972656 224.832031 318.589844 224.605469 318.1875 224.414062 C 317.785156 224.222656 317.367188 224.0625 316.941406 223.941406 C 316.511719 223.820312 316.074219 223.734375 315.632812 223.683594 C 312.8125 223.402344 309.984375 223.273438 307.148438 223.296875 C 309.984375 223.320312 312.8125 223.191406 315.632812 222.910156 C 316.074219 222.863281 316.511719 222.777344 316.941406 222.65625 C 317.367188 222.535156 317.785156 222.375 318.1875 222.183594 C 318.589844 221.992188 318.972656 221.765625 319.335938 221.507812 C 319.699219 221.25 320.039062 220.964844 320.351562 220.648438 C 320.667969 220.332031 320.953125 219.992188 321.210938 219.628906 C 321.46875 219.265625 321.695312 218.882812 321.886719 218.480469 C 322.082031 218.078125 322.238281 217.664062 322.359375 217.234375 C 322.484375 216.804688 322.570312 216.371094 322.617188 215.925781 C 322.898438 213.105469 323.027344 210.277344 323.003906 207.441406 C 322.980469 210.277344 323.109375 213.105469 323.390625 215.925781 Z M 323.390625 215.925781 " fill-opacity="1" fill-rule="nonzero"/></g><g clip-path="url(#718e5e29ab)"><path fill="#ffffff" d="M 341.09375 227.59375 C 341.144531 228.042969 341.265625 228.476562 341.460938 228.882812 C 341.660156 229.292969 341.917969 229.660156 342.238281 229.980469 C 342.558594 230.304688 342.925781 230.5625 343.335938 230.757812 C 343.746094 230.953125 344.175781 231.078125 344.628906 231.125 C 346.054688 231.269531 347.488281 231.335938 348.921875 231.324219 C 347.488281 231.3125 346.054688 231.375 344.628906 231.519531 C 344.175781 231.566406 343.746094 231.691406 343.335938 231.886719 C 342.925781 232.082031 342.558594 232.34375 342.238281 232.664062 C 341.917969 232.984375 341.660156 233.351562 341.460938 233.761719 C 341.265625 234.171875 341.144531 234.601562 341.09375 235.054688 C 340.949219 236.480469 340.886719 237.910156 340.898438 239.347656 C 340.910156 237.910156 340.84375 236.480469 340.703125 235.054688 C 340.652344 234.601562 340.53125 234.171875 340.332031 233.761719 C 340.136719 233.351562 339.878906 232.984375 339.554688 232.664062 C 339.234375 232.34375 338.871094 232.082031 338.460938 231.886719 C 338.050781 231.691406 337.617188 231.566406 337.167969 231.519531 C 335.738281 231.375 334.308594 231.3125 332.875 231.324219 C 334.308594 231.335938 335.738281 231.269531 337.167969 231.125 C 337.617188 231.078125 338.050781 230.953125 338.460938 230.757812 C 338.871094 230.5625 339.234375 230.304688 339.554688 229.980469 C 339.878906 229.660156 340.136719 229.292969 340.332031 228.882812 C 340.53125 228.476562 340.652344 228.042969 340.703125 227.59375 C 340.84375 226.164062 340.910156 224.734375 340.898438 223.296875 C 340.886719 224.734375 340.953125 226.164062 341.09375 227.59375 Z M 341.09375 227.59375 " fill-opacity="1" fill-rule="nonzero"/></g><path fill="#ffffff" d="M 335.0625 211.757812 C 335.09375 212.035156 335.167969 212.296875 335.285156 212.546875 C 335.40625 212.796875 335.566406 213.019531 335.761719 213.214844 C 335.957031 213.414062 336.179688 213.570312 336.429688 213.691406 C 336.679688 213.8125 336.945312 213.886719 337.21875 213.914062 C 338.089844 214.003906 338.964844 214.042969 339.839844 214.035156 C 338.964844 214.027344 338.089844 214.066406 337.21875 214.15625 C 336.945312 214.183594 336.679688 214.261719 336.429688 214.378906 C 336.179688 214.5 335.957031 214.65625 335.761719 214.855469 C 335.566406 215.050781 335.40625 215.273438 335.285156 215.523438 C 335.167969 215.773438 335.09375 216.039062 335.0625 216.3125 C 334.976562 217.183594 334.933594 218.058594 334.941406 218.933594 C 334.949219 218.058594 334.910156 217.183594 334.824219 216.3125 C 334.792969 216.039062 334.71875 215.773438 334.597656 215.523438 C 334.476562 215.273438 334.320312 215.050781 334.125 214.855469 C 333.925781 214.65625 333.703125 214.5 333.453125 214.378906 C 333.203125 214.261719 332.941406 214.183594 332.664062 214.15625 C 331.792969 214.066406 330.917969 214.027344 330.042969 214.035156 C 330.917969 214.042969 331.792969 214.003906 332.664062 213.914062 C 332.941406 213.886719 333.203125 213.8125 333.453125 213.691406 C 333.703125 213.570312 333.925781 213.414062 334.121094 213.214844 C 334.320312 213.019531 334.476562 212.796875 334.597656 212.546875 C 334.714844 212.296875 334.792969 212.035156 334.820312 211.757812 C 334.910156 210.886719 334.949219 210.011719 334.941406 209.136719 C 334.933594 210.011719 334.976562 210.886719 335.0625 211.757812 Z M 335.0625 211.757812 " fill-opacity="1" fill-rule="nonzero"/><g clip-path="url(#390e629d26)"><path fill="#ffffff" d="M 199.84375 213.742188 C 199.917969 214.40625 200.097656 215.039062 200.386719 215.640625 C 200.675781 216.242188 201.054688 216.777344 201.527344 217.25 C 202 217.722656 202.539062 218.105469 203.140625 218.394531 C 203.742188 218.679688 204.375 218.863281 205.039062 218.933594 C 207.136719 219.144531 209.238281 219.238281 211.347656 219.222656 C 209.238281 219.203125 207.136719 219.300781 205.039062 219.507812 C 204.375 219.582031 203.742188 219.761719 203.140625 220.050781 C 202.539062 220.339844 202 220.71875 201.527344 221.191406 C 201.054688 221.664062 200.675781 222.203125 200.386719 222.804688 C 200.097656 223.40625 199.917969 224.039062 199.84375 224.703125 C 199.636719 226.800781 199.539062 228.902344 199.558594 231.011719 C 199.574219 228.902344 199.480469 226.800781 199.269531 224.703125 C 199.199219 224.039062 199.015625 223.40625 198.730469 222.804688 C 198.441406 222.203125 198.058594 221.664062 197.585938 221.191406 C 197.113281 220.71875 196.578125 220.339844 195.976562 220.050781 C 195.375 219.761719 194.742188 219.582031 194.078125 219.507812 C 191.980469 219.300781 189.875 219.203125 187.769531 219.222656 C 189.875 219.238281 191.980469 219.144531 194.078125 218.933594 C 194.742188 218.863281 195.375 218.679688 195.976562 218.394531 C 196.578125 218.105469 197.113281 217.722656 197.585938 217.25 C 198.058594 216.777344 198.441406 216.242188 198.726562 215.640625 C 199.015625 215.039062 199.199219 214.40625 199.269531 213.742188 C 199.480469 211.644531 199.574219 209.539062 199.558594 207.433594 C 199.539062 209.539062 199.636719 211.644531 199.84375 213.742188 Z M 199.84375 213.742188 " fill-opacity="1" fill-rule="nonzero"/></g><g clip-path="url(#4e931fd97a)"><path fill="#ffffff" d="M 213.007812 222.414062 C 213.046875 222.75 213.136719 223.070312 213.28125 223.375 C 213.429688 223.679688 213.621094 223.953125 213.859375 224.191406 C 214.097656 224.429688 214.371094 224.621094 214.675781 224.769531 C 214.980469 224.914062 215.300781 225.007812 215.636719 225.042969 C 216.699219 225.148438 217.761719 225.195312 218.828125 225.1875 C 217.761719 225.179688 216.699219 225.226562 215.636719 225.332031 C 215.300781 225.371094 214.980469 225.460938 214.675781 225.609375 C 214.371094 225.753906 214.097656 225.945312 213.859375 226.183594 C 213.621094 226.425781 213.429688 226.695312 213.28125 227 C 213.136719 227.304688 213.046875 227.625 213.007812 227.960938 C 212.902344 229.023438 212.855469 230.085938 212.863281 231.15625 C 212.871094 230.085938 212.824219 229.023438 212.71875 227.960938 C 212.679688 227.625 212.589844 227.304688 212.441406 227 C 212.296875 226.695312 212.105469 226.425781 211.867188 226.183594 C 211.625 225.945312 211.355469 225.753906 211.050781 225.609375 C 210.746094 225.460938 210.425781 225.371094 210.089844 225.332031 C 209.027344 225.226562 207.964844 225.179688 206.898438 225.1875 C 207.964844 225.195312 209.027344 225.148438 210.089844 225.042969 C 210.425781 225.007812 210.746094 224.914062 211.050781 224.769531 C 211.355469 224.621094 211.625 224.429688 211.867188 224.191406 C 212.105469 223.953125 212.296875 223.679688 212.441406 223.375 C 212.589844 223.070312 212.679688 222.75 212.71875 222.414062 C 212.824219 221.351562 212.871094 220.289062 212.863281 219.222656 C 212.855469 220.289062 212.902344 221.351562 213.007812 222.414062 Z M 213.007812 222.414062 " fill-opacity="1" fill-rule="nonzero"/></g><path fill="#ffffff" d="M 208.523438 210.640625 C 208.570312 211.0625 208.742188 211.425781 209.042969 211.726562 C 209.34375 212.027344 209.707031 212.199219 210.128906 212.246094 C 210.777344 212.308594 211.425781 212.339844 212.078125 212.335938 C 211.425781 212.328125 210.777344 212.359375 210.128906 212.421875 C 209.707031 212.46875 209.34375 212.644531 209.042969 212.941406 C 208.742188 213.242188 208.570312 213.605469 208.523438 214.027344 C 208.457031 214.675781 208.429688 215.324219 208.433594 215.976562 C 208.441406 215.324219 208.410156 214.675781 208.347656 214.027344 C 208.300781 213.605469 208.125 213.242188 207.824219 212.941406 C 207.523438 212.644531 207.164062 212.46875 206.742188 212.421875 C 206.09375 212.359375 205.441406 212.328125 204.792969 212.335938 C 205.441406 212.339844 206.09375 212.308594 206.742188 212.246094 C 207.164062 212.199219 207.523438 212.027344 207.824219 211.726562 C 208.125 211.425781 208.300781 211.0625 208.34375 210.640625 C 208.410156 209.992188 208.441406 209.34375 208.433594 208.691406 C 208.429688 209.34375 208.457031 209.992188 208.523438 210.640625 Z M 208.523438 210.640625 " fill-opacity="1" fill-rule="nonzero"/></svg>